# xmcd
#
# Track frame offsets: 
#        150
#        10998
#        21230
#        36927
#        49282
#        65252
#        79959
#        92653
#        105127
#        118539
#        138596
#        153572
#        167969
#        180204
#        190618
#        203433
#        218807
#        228244
#        238920
#        254977
#        272036
#        286510
#        301379
#        329493
#
# Disc length: 4646 seconds
#
# Revision: 2
# Processed by: cddbd v1.5.2PL0 Copyright (c) Steve Scherf et al.
# Submitted via: ExactAudioCopyFreeDBPlugin 1.0
#
DISCID=4d122418
DTITLE=Aretha Franklin - Respect (The Very Best Of) [CD1]
DYEAR=2002
DGENRE=R&B
TTITLE0=Respect
TTITLE1=Think
TTITLE2=Spanish Harlem
TTITLE3=(You Make Me Feel Like) A Natural Woman
TTITLE4=I Say A Little Prayer
TTITLE5=Son Of A Preacher Man
TTITLE6=I Never Loved A Man (The Way I Love You)
TTITLE7=Chain Of Fools
TTITLE8=Don't Play That Song (You Lied)
TTITLE9=Angel
TTITLE10=Border Song (Holy Moses)
TTITLE11=Rock Steady
TTITLE12=See Saw
TTITLE13=The House That Jack Built
TTITLE14=Oh No Not My Baby
TTITLE15=Until You Come Back To Me (That's What I'm Gonna Do)
TTITLE16=Good Times
TTITLE17=Since You've Been Gone (Sweet Sweet Baby)
TTITLE18=You're All I Need To Get By
TTITLE19=Ain't Nothing Like The Real Thing
TTITLE20=Do Right Woman - Do Right Man
TTITLE21=Share Your Love With Me
TTITLE22=Something He Can Feel
TTITLE23=Ain't No Way
EXTD=
EXTT0=
EXTT1=
EXTT2=
EXTT3=
EXTT4=
EXTT5=
EXTT6=
EXTT7=
EXTT8=
EXTT9=
EXTT10=
EXTT11=
EXTT12=
EXTT13=
EXTT14=
EXTT15=
EXTT16=
EXTT17=
EXTT18=
EXTT19=
EXTT20=
EXTT21=
EXTT22=
EXTT23=
PLAYORDER=
